<svg width="21" height="19" viewBox="0 0 21 19" fill="none" xmlns="http://www.w3.org/2000/svg">
<path d="M6 15C4.9 15 4 15.955 4 17C4 18.045 4.9 19 6 19C7.1 19 8 18.045 8 17C8 15.955 7.1 15 6 15ZM0 0V2H2L6 9L4 11C3.84 11.266 4 11.6675 4 12C4 13.045 4.9 14 6 14H18V12H6C5.86 12 6 12.133 6 12V12L7 10H15C15.75 10 15.66 9.589 16 9L20 3C20.08 2.867 20 3.1615 20 3C20 2.4775 19.55 2 19 2H4L3 0H0ZM16 15C14.9 15 14 15.955 14 17C14 18.045 14.9 19 16 19C17.1 19 18 18.045 18 17C18 15.955 17.1 15 16 15Z" fill="#009688"/>
</svg>
