<svg width="44" height="16" viewBox="0 0 44 16" fill="none" xmlns="http://www.w3.org/2000/svg">
<path d="M6.70898 10.7769L9.41895 12.9229L8.4668 13.8018L5.80078 11.6851L6.70898 10.7769ZM9.38232 6.33105V7.00488C9.38232 7.80566 9.28223 8.52344 9.08203 9.1582C8.88184 9.79297 8.59375 10.3325 8.21777 10.7769C7.8418 11.2212 7.39014 11.5605 6.86279 11.7949C6.34033 12.0293 5.75439 12.1465 5.10498 12.1465C4.4751 12.1465 3.89648 12.0293 3.36914 11.7949C2.84668 11.5605 2.39258 11.2212 2.00684 10.7769C1.62598 10.3325 1.33057 9.79297 1.12061 9.1582C0.910645 8.52344 0.805664 7.80566 0.805664 7.00488V6.33105C0.805664 5.53027 0.908203 4.81494 1.11328 4.18506C1.32324 3.55029 1.61865 3.01074 1.99951 2.56641C2.38037 2.11719 2.83203 1.77539 3.35449 1.54102C3.88184 1.30664 4.46045 1.18945 5.09033 1.18945C5.73975 1.18945 6.32812 1.30664 6.85547 1.54102C7.38281 1.77539 7.83447 2.11719 8.21045 2.56641C8.58643 3.01074 8.87451 3.55029 9.07471 4.18506C9.27979 4.81494 9.38232 5.53027 9.38232 6.33105ZM7.9834 7.00488V6.31641C7.9834 5.68164 7.91748 5.12012 7.78564 4.63184C7.65869 4.14355 7.4707 3.7334 7.22168 3.40137C6.97266 3.06934 6.66992 2.81787 6.31348 2.64697C5.95703 2.47607 5.54932 2.39062 5.09033 2.39062C4.65576 2.39062 4.26025 2.47607 3.90381 2.64697C3.55225 2.81787 3.24951 3.06934 2.99561 3.40137C2.7417 3.7334 2.54639 4.14355 2.40967 4.63184C2.27295 5.12012 2.20459 5.68164 2.20459 6.31641V7.00488C2.20459 7.64453 2.27295 8.21094 2.40967 8.7041C2.54639 9.19238 2.7417 9.60498 2.99561 9.94189C3.25439 10.2739 3.56201 10.5254 3.91846 10.6963C4.2749 10.8672 4.67041 10.9526 5.10498 10.9526C5.56396 10.9526 5.97168 10.8672 6.32812 10.6963C6.68457 10.5254 6.98486 10.2739 7.229 9.94189C7.47803 9.60498 7.66602 9.19238 7.79297 8.7041C7.91992 8.21094 7.9834 7.64453 7.9834 7.00488ZM17.2485 9.30469C17.2485 9.05566 17.2095 8.83594 17.1313 8.64551C17.0581 8.4502 16.9263 8.27441 16.7358 8.11816C16.5503 7.96191 16.2915 7.81299 15.9595 7.67139C15.6323 7.52979 15.2173 7.38574 14.7144 7.23926C14.187 7.08301 13.7109 6.90967 13.2861 6.71924C12.8613 6.52393 12.4976 6.30176 12.1948 6.05273C11.8921 5.80371 11.6602 5.51807 11.499 5.1958C11.3379 4.87354 11.2573 4.50488 11.2573 4.08984C11.2573 3.6748 11.3428 3.2915 11.5137 2.93994C11.6846 2.58838 11.9287 2.2832 12.2461 2.02441C12.5684 1.76074 12.9517 1.55566 13.396 1.40918C13.8403 1.2627 14.3359 1.18945 14.8828 1.18945C15.6836 1.18945 16.3623 1.34326 16.9189 1.65088C17.4805 1.95361 17.9077 2.35156 18.2007 2.84473C18.4937 3.33301 18.6401 3.85547 18.6401 4.41211H17.2339C17.2339 4.01172 17.1484 3.65771 16.9775 3.3501C16.8066 3.0376 16.5479 2.79346 16.2012 2.61768C15.8545 2.43701 15.415 2.34668 14.8828 2.34668C14.3799 2.34668 13.9648 2.42236 13.6377 2.57373C13.3105 2.7251 13.0664 2.93018 12.9053 3.18896C12.749 3.44775 12.6709 3.74316 12.6709 4.0752C12.6709 4.2998 12.7173 4.50488 12.8101 4.69043C12.9077 4.87109 13.0566 5.03955 13.2568 5.1958C13.4619 5.35205 13.7207 5.49609 14.0332 5.62793C14.3506 5.75977 14.729 5.88672 15.1685 6.00879C15.7739 6.17969 16.2964 6.37012 16.7358 6.58008C17.1753 6.79004 17.5366 7.02686 17.8198 7.29053C18.1079 7.54932 18.3203 7.84473 18.457 8.17676C18.5986 8.50391 18.6694 8.875 18.6694 9.29004C18.6694 9.72461 18.5815 10.1177 18.4058 10.4692C18.23 10.8208 17.9785 11.1211 17.6514 11.3701C17.3242 11.6191 16.9312 11.812 16.4722 11.9487C16.0181 12.0806 15.5103 12.1465 14.9487 12.1465C14.4556 12.1465 13.9697 12.0781 13.4912 11.9414C13.0176 11.8047 12.5854 11.5996 12.1948 11.3262C11.8091 11.0527 11.499 10.7158 11.2646 10.3154C11.0352 9.91016 10.9204 9.44141 10.9204 8.90918H12.3267C12.3267 9.27539 12.3975 9.59033 12.5391 9.854C12.6807 10.1128 12.8735 10.3276 13.1177 10.4985C13.3667 10.6694 13.6475 10.7964 13.96 10.8794C14.2773 10.9575 14.6069 10.9966 14.9487 10.9966C15.4419 10.9966 15.8594 10.9282 16.2012 10.7915C16.543 10.6548 16.8018 10.4595 16.9775 10.2056C17.1582 9.95166 17.2485 9.65137 17.2485 9.30469ZM21.6211 0.75V12H20.2661V0.75H21.6211ZM21.2988 7.7373L20.7349 7.71533C20.7397 7.17334 20.8203 6.67285 20.9766 6.21387C21.1328 5.75 21.3525 5.34717 21.6357 5.00537C21.9189 4.66357 22.2559 4.3999 22.6465 4.21436C23.042 4.02393 23.479 3.92871 23.9575 3.92871C24.3481 3.92871 24.6997 3.98242 25.0122 4.08984C25.3247 4.19238 25.5908 4.3584 25.8105 4.58789C26.0352 4.81738 26.2061 5.11523 26.3232 5.48145C26.4404 5.84277 26.499 6.28467 26.499 6.80713V12H25.1367V6.79248C25.1367 6.37744 25.0757 6.04541 24.9536 5.79639C24.8315 5.54248 24.6533 5.35938 24.4189 5.24707C24.1846 5.12988 23.8965 5.07129 23.5547 5.07129C23.2178 5.07129 22.9102 5.14209 22.6318 5.28369C22.3584 5.42529 22.1216 5.62061 21.9214 5.86963C21.7261 6.11865 21.5723 6.4043 21.46 6.72656C21.3525 7.04395 21.2988 7.38086 21.2988 7.7373ZM28.1689 8.12549V7.95703C28.1689 7.38574 28.252 6.85596 28.418 6.36768C28.584 5.87451 28.8232 5.44727 29.1357 5.08594C29.4482 4.71973 29.8267 4.43652 30.271 4.23633C30.7153 4.03125 31.2134 3.92871 31.7651 3.92871C32.3218 3.92871 32.8223 4.03125 33.2666 4.23633C33.7158 4.43652 34.0967 4.71973 34.4092 5.08594C34.7266 5.44727 34.9683 5.87451 35.1343 6.36768C35.3003 6.85596 35.3833 7.38574 35.3833 7.95703V8.12549C35.3833 8.69678 35.3003 9.22656 35.1343 9.71484C34.9683 10.2031 34.7266 10.6304 34.4092 10.9966C34.0967 11.3579 33.7183 11.6411 33.2739 11.8462C32.8345 12.0464 32.3364 12.1465 31.7798 12.1465C31.2231 12.1465 30.7227 12.0464 30.2783 11.8462C29.834 11.6411 29.4531 11.3579 29.1357 10.9966C28.8232 10.6304 28.584 10.2031 28.418 9.71484C28.252 9.22656 28.1689 8.69678 28.1689 8.12549ZM29.5239 7.95703V8.12549C29.5239 8.521 29.5703 8.89453 29.6631 9.24609C29.7559 9.59277 29.895 9.90039 30.0806 10.1689C30.271 10.4375 30.5078 10.6499 30.791 10.8062C31.0742 10.9575 31.4038 11.0332 31.7798 11.0332C32.1509 11.0332 32.4756 10.9575 32.7539 10.8062C33.0371 10.6499 33.2715 10.4375 33.457 10.1689C33.6426 9.90039 33.7817 9.59277 33.8745 9.24609C33.9722 8.89453 34.021 8.521 34.021 8.12549V7.95703C34.021 7.56641 33.9722 7.19775 33.8745 6.85107C33.7817 6.49951 33.6401 6.18945 33.4497 5.9209C33.2642 5.64746 33.0298 5.43262 32.7466 5.27637C32.4683 5.12012 32.1411 5.04199 31.7651 5.04199C31.394 5.04199 31.0669 5.12012 30.7837 5.27637C30.5054 5.43262 30.271 5.64746 30.0806 5.9209C29.895 6.18945 29.7559 6.49951 29.6631 6.85107C29.5703 7.19775 29.5239 7.56641 29.5239 7.95703ZM38.4375 5.59863V15.0469H37.0752V4.0752H38.3203L38.4375 5.59863ZM43.7769 7.97168V8.12549C43.7769 8.70166 43.7085 9.23633 43.5718 9.72949C43.4351 10.2178 43.2349 10.6426 42.9712 11.0039C42.7124 11.3652 42.3926 11.646 42.0117 11.8462C41.6309 12.0464 41.1938 12.1465 40.7007 12.1465C40.1978 12.1465 39.7534 12.0635 39.3677 11.8975C38.9819 11.7314 38.6548 11.4897 38.3862 11.1724C38.1177 10.855 37.9028 10.4741 37.7417 10.0298C37.5854 9.58545 37.478 9.08496 37.4194 8.52832V7.70801C37.478 7.12207 37.5879 6.59717 37.749 6.1333C37.9102 5.66943 38.1226 5.27393 38.3862 4.94678C38.6548 4.61475 38.9795 4.36328 39.3604 4.19238C39.7412 4.0166 40.1807 3.92871 40.6787 3.92871C41.1768 3.92871 41.6187 4.02637 42.0044 4.22168C42.3901 4.41211 42.7148 4.68555 42.9785 5.04199C43.2422 5.39844 43.4399 5.82568 43.5718 6.32373C43.7085 6.81689 43.7769 7.36621 43.7769 7.97168ZM42.4146 8.12549V7.97168C42.4146 7.57617 42.373 7.20508 42.29 6.8584C42.207 6.50684 42.0776 6.19922 41.9019 5.93555C41.731 5.66699 41.5112 5.45703 41.2427 5.30566C40.9741 5.14941 40.6543 5.07129 40.2832 5.07129C39.9414 5.07129 39.6436 5.12988 39.3896 5.24707C39.1406 5.36426 38.9282 5.52295 38.7524 5.72314C38.5767 5.91846 38.4326 6.14307 38.3203 6.39697C38.2129 6.646 38.1323 6.90479 38.0786 7.17334V9.07031C38.1763 9.41211 38.313 9.73438 38.4888 10.0371C38.6646 10.335 38.8989 10.5767 39.1919 10.7622C39.4849 10.9429 39.8535 11.0332 40.2979 11.0332C40.6641 11.0332 40.979 10.9575 41.2427 10.8062C41.5112 10.6499 41.731 10.4375 41.9019 10.1689C42.0776 9.90039 42.207 9.59277 42.29 9.24609C42.373 8.89453 42.4146 8.521 42.4146 8.12549Z" fill="white"/>
</svg>
