<svg width="72" height="23" viewBox="0 0 72 23" fill="none" xmlns="http://www.w3.org/2000/svg">
<path d="M10.793 15.4688L15.4102 19.125L13.1953 21.0469L8.64844 17.3906L10.793 15.4688ZM15.5273 9.07031V9.87891C15.5273 11.1758 15.3516 12.3398 15 13.3711C14.6562 14.4023 14.1602 15.2812 13.5117 16.0078C12.8633 16.7266 12.0977 17.2773 11.2148 17.6602C10.332 18.043 9.35156 18.2344 8.27344 18.2344C7.20312 18.2344 6.22266 18.043 5.33203 17.6602C4.44141 17.2773 3.67188 16.7266 3.02344 16.0078C2.375 15.2812 1.87109 14.4023 1.51172 13.3711C1.16016 12.3398 0.984375 11.1758 0.984375 9.87891V9.07031C0.984375 7.76562 1.16016 6.60156 1.51172 5.57812C1.87109 4.54688 2.37109 3.66797 3.01172 2.94141C3.65234 2.21484 4.41797 1.66016 5.30859 1.27734C6.19922 0.894531 7.17969 0.703125 8.25 0.703125C9.32812 0.703125 10.3086 0.894531 11.1914 1.27734C12.082 1.66016 12.8516 2.21484 13.5 2.94141C14.1484 3.66797 14.6484 4.54688 15 5.57812C15.3516 6.60156 15.5273 7.76562 15.5273 9.07031ZM11.9766 9.87891V9.04688C11.9766 8.14062 11.8906 7.34375 11.7188 6.65625C11.5547 5.96875 11.3125 5.39062 10.9922 4.92188C10.6797 4.45312 10.293 4.10156 9.83203 3.86719C9.37109 3.625 8.84375 3.50391 8.25 3.50391C7.65625 3.50391 7.12891 3.625 6.66797 3.86719C6.20703 4.10156 5.82031 4.45312 5.50781 4.92188C5.19531 5.39062 4.95703 5.96875 4.79297 6.65625C4.62891 7.34375 4.54688 8.14062 4.54688 9.04688V9.87891C4.54688 10.7773 4.62891 11.5742 4.79297 12.2695C4.95703 12.957 5.19531 13.5391 5.50781 14.0156C5.82812 14.4844 6.21875 14.8398 6.67969 15.082C7.14844 15.3242 7.67969 15.4453 8.27344 15.4453C8.86719 15.4453 9.39062 15.3242 9.84375 15.082C10.3047 14.8398 10.6914 14.4844 11.0039 14.0156C11.3242 13.5391 11.5664 12.957 11.7305 12.2695C11.8945 11.5742 11.9766 10.7773 11.9766 9.87891ZM26.9531 13.5352C26.9531 13.2305 26.9062 12.957 26.8125 12.7148C26.7266 12.4648 26.5625 12.2383 26.3203 12.0352C26.0781 11.8242 25.7383 11.6172 25.3008 11.4141C24.8633 11.2109 24.2969 11 23.6016 10.7812C22.8281 10.5312 22.0938 10.25 21.3984 9.9375C20.7109 9.625 20.1016 9.26172 19.5703 8.84766C19.0469 8.42578 18.6328 7.9375 18.3281 7.38281C18.0312 6.82812 17.8828 6.18359 17.8828 5.44922C17.8828 4.73828 18.0391 4.09375 18.3516 3.51562C18.6641 2.92969 19.1016 2.42969 19.6641 2.01562C20.2266 1.59375 20.8906 1.26953 21.6562 1.04297C22.4297 0.816406 23.2773 0.703125 24.1992 0.703125C25.457 0.703125 26.5547 0.929687 27.4922 1.38281C28.4297 1.83594 29.1562 2.45703 29.6719 3.24609C30.1953 4.03516 30.457 4.9375 30.457 5.95312H26.9648C26.9648 5.45312 26.8594 5.01562 26.6484 4.64062C26.4453 4.25781 26.1328 3.95703 25.7109 3.73828C25.2969 3.51953 24.7734 3.41016 24.1406 3.41016C23.5312 3.41016 23.0234 3.50391 22.6172 3.69141C22.2109 3.87109 21.9062 4.11719 21.7031 4.42969C21.5 4.73438 21.3984 5.07812 21.3984 5.46094C21.3984 5.75 21.4688 6.01172 21.6094 6.24609C21.7578 6.48047 21.9766 6.69922 22.2656 6.90234C22.5547 7.10547 22.9102 7.29688 23.332 7.47656C23.7539 7.65625 24.2422 7.83203 24.7969 8.00391C25.7266 8.28516 26.543 8.60156 27.2461 8.95312C27.957 9.30469 28.5508 9.69922 29.0273 10.1367C29.5039 10.5742 29.8633 11.0703 30.1055 11.625C30.3477 12.1797 30.4688 12.8086 30.4688 13.5117C30.4688 14.2539 30.3242 14.918 30.0352 15.5039C29.7461 16.0898 29.3281 16.5859 28.7812 16.9922C28.2344 17.3984 27.582 17.707 26.8242 17.918C26.0664 18.1289 25.2188 18.2344 24.2812 18.2344C23.4375 18.2344 22.6055 18.125 21.7852 17.9062C20.9648 17.6797 20.2188 17.3398 19.5469 16.8867C18.8828 16.4336 18.3516 15.8555 17.9531 15.1523C17.5547 14.4492 17.3555 13.6172 17.3555 12.6562H20.8828C20.8828 13.1875 20.9648 13.6367 21.1289 14.0039C21.293 14.3711 21.5234 14.668 21.8203 14.8945C22.125 15.1211 22.4844 15.2852 22.8984 15.3867C23.3203 15.4883 23.7812 15.5391 24.2812 15.5391C24.8906 15.5391 25.3906 15.4531 25.7812 15.2812C26.1797 15.1094 26.4727 14.8711 26.6602 14.5664C26.8555 14.2617 26.9531 13.918 26.9531 13.5352ZM35.9414 0V18H32.5664V0H35.9414ZM35.4609 11.2148H34.5352C34.543 10.332 34.6602 9.51953 34.8867 8.77734C35.1133 8.02734 35.4375 7.37891 35.8594 6.83203C36.2812 6.27734 36.7852 5.84766 37.3711 5.54297C37.9648 5.23828 38.6211 5.08594 39.3398 5.08594C39.9648 5.08594 40.5312 5.17578 41.0391 5.35547C41.5547 5.52734 41.9961 5.80859 42.3633 6.19922C42.7383 6.58203 43.0273 7.08594 43.2305 7.71094C43.4336 8.33594 43.5352 9.09375 43.5352 9.98438V18H40.1367V9.96094C40.1367 9.39844 40.0547 8.95703 39.8906 8.63672C39.7344 8.30859 39.5039 8.07812 39.1992 7.94531C38.9023 7.80469 38.5352 7.73438 38.0977 7.73438C37.6133 7.73438 37.1992 7.82422 36.8555 8.00391C36.5195 8.18359 36.25 8.43359 36.0469 8.75391C35.8438 9.06641 35.6953 9.43359 35.6016 9.85547C35.5078 10.2773 35.4609 10.7305 35.4609 11.2148ZM45.5625 11.7891V11.543C45.5625 10.6133 45.6953 9.75781 45.9609 8.97656C46.2266 8.1875 46.6133 7.50391 47.1211 6.92578C47.6289 6.34766 48.2539 5.89844 48.9961 5.57812C49.7383 5.25 50.5898 5.08594 51.5508 5.08594C52.5117 5.08594 53.3672 5.25 54.1172 5.57812C54.8672 5.89844 55.4961 6.34766 56.0039 6.92578C56.5195 7.50391 56.9102 8.1875 57.1758 8.97656C57.4414 9.75781 57.5742 10.6133 57.5742 11.543V11.7891C57.5742 12.7109 57.4414 13.5664 57.1758 14.3555C56.9102 15.1367 56.5195 15.8203 56.0039 16.4062C55.4961 16.9844 54.8711 17.4336 54.1289 17.7539C53.3867 18.0742 52.5352 18.2344 51.5742 18.2344C50.6133 18.2344 49.7578 18.0742 49.0078 17.7539C48.2656 17.4336 47.6367 16.9844 47.1211 16.4062C46.6133 15.8203 46.2266 15.1367 45.9609 14.3555C45.6953 13.5664 45.5625 12.7109 45.5625 11.7891ZM48.9375 11.543V11.7891C48.9375 12.3203 48.9844 12.8164 49.0781 13.2773C49.1719 13.7383 49.3203 14.1445 49.5234 14.4961C49.7344 14.8398 50.0078 15.1094 50.3438 15.3047C50.6797 15.5 51.0898 15.5977 51.5742 15.5977C52.043 15.5977 52.4453 15.5 52.7812 15.3047C53.1172 15.1094 53.3867 14.8398 53.5898 14.4961C53.793 14.1445 53.9414 13.7383 54.0352 13.2773C54.1367 12.8164 54.1875 12.3203 54.1875 11.7891V11.543C54.1875 11.0273 54.1367 10.543 54.0352 10.0898C53.9414 9.62891 53.7891 9.22266 53.5781 8.87109C53.375 8.51172 53.1055 8.23047 52.7695 8.02734C52.4336 7.82422 52.0273 7.72266 51.5508 7.72266C51.0742 7.72266 50.668 7.82422 50.332 8.02734C50.0039 8.23047 49.7344 8.51172 49.5234 8.87109C49.3203 9.22266 49.1719 9.62891 49.0781 10.0898C48.9844 10.543 48.9375 11.0273 48.9375 11.543ZM63.0234 7.75781V22.875H59.6484V5.32031H62.7773L63.0234 7.75781ZM71.0508 11.5195V11.7656C71.0508 12.6875 70.9414 13.543 70.7227 14.332C70.5117 15.1211 70.1992 15.8086 69.7852 16.3945C69.3711 16.9727 68.8555 17.4258 68.2383 17.7539C67.6289 18.0742 66.9258 18.2344 66.1289 18.2344C65.3555 18.2344 64.6836 18.0781 64.1133 17.7656C63.543 17.4531 63.0625 17.0156 62.6719 16.4531C62.2891 15.8828 61.9805 15.2227 61.7461 14.4727C61.5117 13.7227 61.332 12.918 61.207 12.0586V11.4141C61.332 10.4922 61.5117 9.64844 61.7461 8.88281C61.9805 8.10938 62.2891 7.44141 62.6719 6.87891C63.0625 6.30859 63.5391 5.86719 64.1016 5.55469C64.6719 5.24219 65.3398 5.08594 66.1055 5.08594C66.9102 5.08594 67.6172 5.23828 68.2266 5.54297C68.8438 5.84766 69.3594 6.28516 69.7734 6.85547C70.1953 7.42578 70.5117 8.10547 70.7227 8.89453C70.9414 9.68359 71.0508 10.5586 71.0508 11.5195ZM67.6641 11.7656V11.5195C67.6641 10.9805 67.6172 10.4844 67.5234 10.0312C67.4375 9.57031 67.2969 9.16797 67.1016 8.82422C66.9141 8.48047 66.6641 8.21484 66.3516 8.02734C66.0469 7.83203 65.6758 7.73438 65.2383 7.73438C64.7773 7.73438 64.3828 7.80859 64.0547 7.95703C63.7344 8.10547 63.4727 8.32031 63.2695 8.60156C63.0664 8.88281 62.9141 9.21875 62.8125 9.60938C62.7109 10 62.6484 10.4414 62.625 10.9336V12.5625C62.6641 13.1406 62.7734 13.6602 62.9531 14.1211C63.1328 14.5742 63.4102 14.9336 63.7852 15.1992C64.1602 15.4648 64.6523 15.5977 65.2617 15.5977C65.707 15.5977 66.082 15.5 66.3867 15.3047C66.6914 15.1016 66.9375 14.8242 67.125 14.4727C67.3203 14.1211 67.457 13.7148 67.5352 13.2539C67.6211 12.793 67.6641 12.2969 67.6641 11.7656Z" fill="#009688"/>
</svg>
