<svg width="23" height="21" viewBox="0 0 23 21" fill="none" xmlns="http://www.w3.org/2000/svg">
<path d="M11.6899 8H13.8641V5H17.1255V3H13.8641V0H11.6899V3H8.4286V5H11.6899V8ZM7.34149 17C6.14567 17 5.17815 17.9 5.17815 19C5.17815 20.1 6.14567 21 7.34149 21C8.53731 21 9.5157 20.1 9.5157 19C9.5157 17.9 8.53731 17 7.34149 17ZM18.2126 17C17.0167 17 16.0492 17.9 16.0492 19C16.0492 20.1 17.0167 21 18.2126 21C19.4084 21 20.3868 20.1 20.3868 19C20.3868 17.9 19.4084 17 18.2126 17ZM7.5263 13.75L7.55891 13.63L8.53731 12H16.6363C17.4516 12 18.1691 11.59 18.5387 10.97L22.7349 3.96L20.8434 3H20.8325L19.6367 5L16.6363 10H9.00476L8.86344 9.73L6.42832 5L5.39557 3L4.37369 1H0.818848V3H2.99306L6.90665 10.59L5.43905 13.04C5.26512 13.32 5.16728 13.65 5.16728 14C5.16728 15.1 6.14567 16 7.34149 16H20.3868V14H7.79807C7.65675 14 7.5263 13.89 7.5263 13.75Z" fill="white"/>
</svg>
